PathFileType	4	(X/Y/Z)	/Users/itak/Documents/Research/Walk-IL/dataset/trc/00267_00010.trc
DataRate	CameraRate	NumFrames	NumMarkers	Units	OrigDataRate	OrigDataStartFrame	OrigNumFrames
100.000000	100.000000	4	54	mm	100.000000	311	415
Frame#	Time	RPSI			LPSI			L3			STRN			T10			C7			CLAV			RBAK			LBAK			LSHO			LUPA			LAEL			LAOL			LWTS			LWPS			LFRA			LIFD			LHPS			LHTS			RSHO			RUPA			RAEL			RAOL			RWTS			RWPS			RFRA			RIFD			RHTS			RHPS			RBHD			LFHD			RFHD			LBHD			LHIP			RHIP			RASI			LKNE			LTHI			LANK			LTIP			LTOE			LMT1			LMT5			LHEE			RKNE			RTHI			RANK			RTIP			RTOE			RMT1			RMT5			RHEE			LASI			*53			
		X1	Y1	Z1	X2	Y2	Z2	X3	Y3	Z3	X4	Y4	Z4	X5	Y5	Z5	X6	Y6	Z6	X7	Y7	Z7	X8	Y8	Z8	X9	Y9	Z9	X10	Y10	Z10	X11	Y11	Z11	X12	Y12	Z12	X13	Y13	Z13	X14	Y14	Z14	X15	Y15	Z15	X16	Y16	Z16	X17	Y17	Z17	X18	Y18	Z18	X19	Y19	Z19	X20	Y20	Z20	X21	Y21	Z21	X22	Y22	Z22	X23	Y23	Z23	X24	Y24	Z24	X25	Y25	Z25	X26	Y26	Z26	X27	Y27	Z27	X28	Y28	Z28	X29	Y29	Z29	X30	Y30	Z30	X31	Y31	Z31	X32	Y32	Z32	X33	Y33	Z33	X34	Y34	Z34	X35	Y35	Z35	X36	Y36	Z36	X37	Y37	Z37	X38	Y38	Z38	X39	Y39	Z39	X40	Y40	Z40	X41	Y41	Z41	X42	Y42	Z42	X43	Y43	Z43	X44	Y44	Z44	X45	Y45	Z45	X46	Y46	Z46	X47	Y47	Z47	X48	Y48	Z48	X49	Y49	Z49	X50	Y50	Z50	X51	Y51	Z51	X52	Y52	Z52	X53	Y53	Z53	X54	Y54	Z54	

312	3.11	-1243.121704101562	1011.666137695312	68.27434539794922	-1223.346313476562	996.029296875	-103.6238479614258	-1205.108276367188	1081.760009765625	-10.93290710449219	-933.4431762695312	1225.5224609375	0.294923722743988	-1204.389526367188	1196.262939453125	-0.2780793309211731	-1128.163452148438	1431.976318359375	-11.0386905670166	-983.3746337890625	1332.8603515625	-4.431360721588135	-1196.376953125	1304.485229492188	65.21476745605469	-1151.554809570312	1397.895263671875	-114.1452255249023	-1061.778686523438	1393.7490234375	-168.1388092041016	-1111.3125	1285.313232421875	-240.7557373046875	-1148.189819335938	1089.144165039062	-262.8206176757812	-1213.603637695312	1085.20947265625	-205.8621368408203	-1096.103515625	864.7244262695312	-219.8443908691406	-1120.806518554688	860.0994262695312	-287.0221557617188	-1144.800537109375	987.3200073242188	-275.3160705566406	-1107.540649414062	678.1307373046875	-235.5928192138672	-1123.958862304688	771.5603637695312	-291.2244262695312	-1077.293823242188	766.2963256835938	-244.4761505126953	-1062.985595703125	1404.334594726562	147.006591796875	-1076.282836914062	1348.92529296875	215.7500152587891	-1129.3662109375	1092.152587890625	273.2728881835938	-1164.92236328125	1080.513305664062	184.2427825927734	-990.2508544921875	899.0038452148438	239.5693969726562	-1041.806274414062	880.3792114257812	305.3414916992188	-1104.077514648438	1029.9892578125	289.6536254882812	-927.3755493164062	726.0960693359375	248.7237548828125	-931.4295654296875	798.227783203125	266.1635131835938	-986.5570068359375	781.7435302734375	308.2442932128906	-1095.5146484375	1583.715942382812	50.61258316040039	-931.0407104492188	1616.2724609375	-81.70349884033203	-927.6959228515625	1621.78759765625	11.77271556854248	-1100.415405273438	1565.075805664062	-95.26062774658203	-1146.589965820312	946.3636474609375	-188.0627593994141	-1160.9365234375	953.9105834960938	183.9530334472656	-1030.4287109375	948.2835083007812	129.0402679443359	-937.397705078125	519.5081176757812	-186.7268524169922	-998.7493286132812	650.8281860351562	-199.0685272216797	-945.5723876953125	59.15072631835938	-206.2627105712891	-947.9995727539062	288.5862426757812	-210.2020111083984	-750.460205078125	81.22753143310547	-130.7642822265625	-818.6694946289062	59.21463775634766	-96.46946716308594	-823.7975463867188	69.25904083251953	-208.3015899658203	-996.1310424804688	50.8357048034668	-151.7929840087891	-1183.090454101562	480.9693603515625	130.6351165771484	-1124.838989257812	737.1314086914062	176.9642181396484	-1292.092407226562	44.16991806030273	69.44322967529297	-1190.039916992188	357.7619323730469	108.0656967163086	-1097.017944335938	56.43894958496094	14.11893177032471	-1154.2900390625	55.27212905883789	-24.97697448730469	-1184.85498046875	37.52695465087891	89.59343719482422	-1344.726928710938	47.78171157836914	18.10201072692871	-1013.736999511719	953.3291625976562	-121.6517028808594	nan	nan	nan	
313	3.12	-1246.98095703125	1011.638854980469	69.16922760009766	-1227.011596679688	997.2909545898438	-102.8598251342773	-1209.013305664062	1082.533325195312	-10.12504196166992	-937.4004516601562	1227.374877929688	2.508226633071899	-1208.585571289062	1197.318603515625	0.07360552996397018	-1132.463500976562	1433.187866210938	-10.06183815002441	-987.8297119140625	1334.634155273438	-2.608819723129272	-1200.888427734375	1305.46044921875	65.59706878662109	-1154.977905273438	1399.316528320312	-113.4068832397461	-1064.799560546875	1395.695068359375	-166.6539764404297	-1113.124877929688	1287.512329101562	-240.3364410400391	-1149.868774414062	1091.4375	-263.7735900878906	-1215.13427734375	1086.986328125	-206.6838226318359	-1096.26416015625	866.756103515625	-223.3097534179688	-1124.042846679688	861.8785400390625	-289.350341796875	-1146.984619140625	989.38818359375	-276.85595703125	-1109.079956054688	680.2120361328125	-237.4527282714844	-1127.478149414062	773.1973876953125	-292.8273620605469	-1078.740356445312	768.0999755859375	-248.4424285888672	-1068.280639648438	1405.47705078125	148.3289031982422	-1081.836059570312	1349.9775390625	216.8706359863281	-1135.201782226562	1093.168334960938	273.5086975097656	-1169.627563476562	1081.635131835938	184.0433044433594	-1000.120422363281	895.990234375	242.9799041748047	-1053.3447265625	879.183349609375	307.7987670898438	-1111.193481445312	1030.213134765625	290.5012817382812	-942.9021606445312	721.1785888671875	254.6525421142578	-944.7787475585938	793.6995849609375	271.4621887207031	-1001.236389160156	779.1984252929688	312.5696411132812	-1099.753540039062	1584.87890625	52.6684684753418	-934.8981323242188	1617.757202148438	-79.12926483154297	-931.7815551757812	1622.748413085938	14.39456081390381	-1104.369018554688	1567.080200195312	-93.35138702392578	-1149.192749023438	948.5460815429688	-187.6441955566406	-1164.7958984375	953.74169921875	184.6164855957031	-1034.244873046875	948.9373779296875	129.9283905029297	-940.8734130859375	520.8759765625	-185.8607482910156	-1001.405334472656	652.75146484375	-198.0838470458984	-959.312744140625	60.49604415893555	-206.3184661865234	-956.406494140625	289.8667602539062	-209.9820251464844	-763.8511352539062	80.13162231445312	-131.4600524902344	-832.05615234375	58.51067352294922	-96.97182464599609	-837.6477661132812	69.41078186035156	-208.6943969726562	-1009.847717285156	52.46268844604492	-151.7816619873047	-1184.274780273438	481.008544921875	130.1645202636719	-1127.580810546875	737.4423828125	177.0560760498047	-1292.022827148438	44.35929870605469	69.05622863769531	-1190.71435546875	357.8153381347656	107.6045379638672	-1096.770874023438	55.54024505615234	13.49310302734375	-1154.07177734375	54.44398498535156	-25.4647216796875	-1184.724975585938	37.7949104309082	89.16416168212891	-1344.59716796875	47.81706619262695	17.6949634552002	-1017.457336425781	955.3833618164062	-120.7505340576172	nan	nan	nan	
314	3.13	-1250.71826171875	1011.557189941406	69.89720916748047	-1230.543090820312	998.408203125	-102.2440338134766	-1212.800537109375	1083.179321289062	-9.412671089172363	-941.2960815429688	1229.040283203125	4.671426773071289	-1212.7041015625	1198.261596679688	0.4092928767204285	-1136.712524414062	1434.258666992188	-9.148592948913574	-992.2408447265625	1336.196533203125	-0.8261322975158691	-1205.323486328125	1306.288452148438	65.9720458984375	-1158.359375	1400.54541015625	-112.7241973876953	-1067.7802734375	1397.405639648438	-165.2151641845703	-1114.90673828125	1289.455322265625	-239.9209289550781	-1151.467041015625	1093.454956054688	-264.8085632324219	-1216.58447265625	1088.479736328125	-207.5396118164062	-1096.30859375	868.6344604492188	-226.9833374023438	-1127.224243164062	863.393310546875	-291.7737426757812	-1149.114501953125	991.1930541992188	-278.4730529785156	-1110.334350585938	682.0572509765625	-239.2158660888672	-1130.91064453125	774.53759765625	-294.3961181640625	-1080.075439453125	769.6975708007812	-252.4778289794922	-1073.5068359375	1406.528686523438	149.5896911621094	-1087.31884765625	1350.9619140625	217.9505920410156	-1140.779907226562	1094.096801757812	273.817138671875	-1174.173950195312	1082.637817382812	183.9649810791016	-1010.150268554688	892.8208618164062	246.2678070068359	-1064.885864257812	878.0333862304688	310.2109680175781	-1118.07861328125	1030.375854492188	291.4076538085938	-959.1112670898438	716.1522827148438	260.3020629882812	-958.5391235351562	789.02294921875	276.4975280761719	-1016.173706054688	776.6810302734375	316.7460021972656	-1103.960815429688	1585.921508789062	54.63665390014648	-938.6943969726562	1619.121459960938	-76.57541656494141	-935.8399658203125	1623.584228515625	16.99381637573242	-1108.258544921875	1568.962890625	-91.53062438964844	-1151.570922851562	950.58935546875	-187.4043731689453	-1168.55322265625	953.576171875	185.1573028564453	-1037.986328125	949.5291137695312	130.7212982177734	-944.281982421875	522.0027465820312	-185.0094909667969	-1003.864013671875	654.4129028320312	-197.2484130859375	-973.5845947265625	61.92710494995117	-206.4220428466797	-964.9835815429688	291.0749816894531	-209.7787628173828	-777.8809204101562	78.70641326904297	-131.8528594970703	-846.2350463867188	57.64184188842773	-97.32138824462891	-852.013427734375	69.37826538085938	-208.9239959716797	-1024.194580078125	54.27270126342773	-151.9053497314453	-1185.371826171875	481.0040588378906	129.8030853271484	-1130.19189453125	737.6994018554688	177.1149444580078	-1291.954223632812	44.50522613525391	68.73179626464844	-1191.306518554688	357.8347778320312	107.2119750976562	-1096.571166992188	54.71253967285156	12.91443634033203	-1153.903686523438	53.68072891235352	-25.91628074645996	-1184.639038085938	38.02837371826172	88.79793548583984	-1344.498168945312	47.82573699951172	17.34688186645508	-1021.04833984375	957.2669067382812	-119.8842849731445	nan	nan	nan	
315	3.14	-1254.344848632812	1011.464050292969	70.44325256347656	-1233.933471679688	999.3717651367188	-101.7827758789062	-1216.462646484375	1083.708251953125	-8.816880226135254	-945.1243286132812	1230.501098632812	6.753945827484131	-1216.752563476562	1199.068603515625	0.7310763597488403	-1140.907592773438	1435.173583984375	-8.283524513244629	-996.5753784179688	1337.5322265625	0.9138818383216858	-1209.681884765625	1306.94775390625	66.35103607177734	-1161.718627929688	1401.572387695312	-112.0831146240234	-1070.744873046875	1398.869506835938	-163.8245086669922	-1116.702026367188	1291.120483398438	-239.4905548095703	-1152.951416015625	1095.179321289062	-265.8524780273438	-1217.961181640625	1089.659057617188	-208.4234008789062	-1096.352172851562	870.2996826171875	-230.7256317138672	-1130.215087890625	864.6585083007812	-294.2346496582031	-1151.111694335938	992.7279052734375	-280.1172790527344	-1111.32080078125	683.636962890625	-240.9711151123047	-1134.11376953125	775.6144409179688	-295.9781799316406	-1081.311645507812	771.0773315429688	-256.4638671875	-1078.645141601562	1407.454223632812	150.8013000488281	-1092.71728515625	1351.845336914062	219.0009307861328	-1146.140380859375	1094.9091796875	274.2087097167969	-1178.6025390625	1083.494262695312	184.0211181640625	-1020.323608398438	889.541259765625	249.4185791015625	-1076.41259765625	876.931884765625	312.570068359375	-1124.777587890625	1030.4599609375	292.3881225585938	-975.864013671875	711.137451171875	265.6175842285156	-972.6610717773438	784.26904296875	281.2363891601562	-1031.307495117188	774.2310180664062	320.7408447265625	-1108.136962890625	1586.834716796875	56.51558303833008	-942.4447021484375	1620.3447265625	-74.05442810058594	-939.8713989257812	1624.2919921875	19.5494441986084	-1112.097045898438	1570.687622070312	-89.79173278808594	-1153.882446289062	952.406982421875	-187.2942047119141	-1172.220458984375	953.4490356445312	185.5803985595703	-1041.630493164062	950.0932006835938	131.4127349853516	-947.6207275390625	522.8662109375	-184.1972808837891	-1006.169921875	655.7515258789062	-196.5847625732422	-988.3325805664062	63.46822738647461	-206.5777587890625	-973.7061157226562	292.2089233398438	-209.591064453125	-792.5322265625	77.01815795898438	-131.8843078613281	-861.1815185546875	56.65890121459961	-97.48130035400391	-866.8297119140625	69.19840240478516	-208.9519958496094	-1039.119018554688	56.28690719604492	-152.1755523681641	-1186.406982421875	480.9704895019531	129.5769653320312	-1132.6953125	737.9270629882812	177.1653594970703	-1291.89208984375	44.60578155517578	68.48226928710938	-1191.837158203125	357.8258972167969	106.9030838012695	-1096.416625976562	53.98610687255859	12.40603923797607	-1153.778442382812	53.00875854492188	-26.31140899658203	-1184.58984375	38.2166862487793	88.50279998779297	-1344.429077148438	47.80730438232422	17.07189750671387	-1024.514038085938	958.9398193359375	-119.0597381591797	nan	nan	nan	
